<svg xmlns="http://www.w3.org/2000/svg" version="1.1" xmlns:xlink="http://www.w3.org/1999/xlink" xmlns:svgjs="http://svgjs.dev/svgjs" width="1440" height="560" preserveAspectRatio="none" viewBox="0 0 1440 560"><g mask="url(&quot;#SvgjsMask1069&quot;)" fill="none"><rect width="1440" height="560" x="0" y="0" fill="url(&quot;#SvgjsLinearGradient1070&quot;)"></rect><path d="M1447.15 437.65C1317.43 435.35 1230.08 282.94 956.13 269.65 682.17 256.36 611.12-37.63 465.1-51.46" stroke="rgba(121, 0, 255, 0.58)" stroke-width="2"></path><path d="M1526.2 260.47C1368.97 254.25 1182.9 2.24 954.48-2.73 726.06-7.7 741.29-55.18 668.62-55.4" stroke="rgba(121, 0, 255, 0.58)" stroke-width="2"></path><path d="M1473.43 69.91C1351.03 74.51 1252.03 271.75 1026.88 271.51 801.74 271.27 716.43-30.4 580.34-46.04" stroke="rgba(121, 0, 255, 0.58)" stroke-width="2"></path><path d="M1447.49 250.82C1301.08 251.72 1174.28 388.56 877.48 385.22 580.68 381.88 489.33-52.39 307.47-80.76" stroke="rgba(121, 0, 255, 0.58)" stroke-width="2"></path><path d="M1469.36 217.49C1304.05 219.73 1082.76 415.6 837.79 413.49 592.82 411.38 647.75 20.65 522.01-33.06" stroke="rgba(121, 0, 255, 0.58)" stroke-width="2"></path></g><defs><mask id="SvgjsMask1069"><rect width="1440" height="560" fill="#ffffff"></rect></mask><linearGradient x1="15.28%" y1="-39.29%" x2="84.72%" y2="139.29%" gradientUnits="userSpaceOnUse" id="SvgjsLinearGradient1070"><stop stop-color="#0e2a47" offset="0"></stop><stop stop-color="rgba(131, 62, 152, 1)" offset="1"></stop></linearGradient></defs></svg>